<?xml version="1.0" encoding="UTF-8"?><svg xmlns="http://www.w3.org/2000/svg" viewBox="0 0 1767.29 1759.12"><defs><style>.cls-1{fill:#2a2d69;}.cls-2{fill:#2e3959;}.cls-3{fill:#bce6fb;}.cls-4{fill:#fff;}.cls-5{fill:#1aac91;}.cls-6{fill:#603825;}.cls-7{fill:#161e39;}.cls-8{isolation:isolate;}.cls-9{fill:#82c9e8;}.cls-10{fill:#253a63;}.cls-11{fill:#6fc495;}.cls-12{fill:#b6e4fa;mix-blend-mode:multiply;}.cls-13{fill:#9ddcf9;}.cls-14{fill:#00519b;}.cls-15{fill:#344061;}.cls-16{fill:#2a2d6b;}.cls-17{fill:#118f78;}.cls-18{fill:#fab08c;}.cls-19{fill:#8ecc95;}.cls-20{fill:#005baa;}.cls-21{fill:#009d7a;}.cls-22{fill:none;stroke:#bcbec0;stroke-miterlimit:10;stroke-width:4.99px;}</style></defs><g class="cls-8"><g id="Capa_1"><g><g><path class="cls-12" d="M85.69,1275.08c-47.39-109.83-40.46-229.08,30.85-322.1,54.75-71.4,143.33-70.68,199.9-145.68,56.7-75.17,22.9-166.43,18.61-255.97-11.7-244.17,252.17-430.86,424.32-280.45,78.09,68.23,157.8,99.33,250.91,50.36,73.68-38.74,178.96-113.83,254.64-35.84,129.76,133.72-77.99,361.59,154.08,410.71,145.79,30.86,330.56,5.36,328.82,316.9-.62,111.75-117.47,168.09-151.36,262.44-24.4,67.93,.96,140.74-44.92,201.05-143.56,188.71-443.96,107.45-635.96,107.45-165.25,0-327.75,62.73-487.39-17.24-126.21-63.22-278.87-144.16-342.51-291.64Z"/><path class="cls-12" d="M1689.45,1141.36c-18.58-21.98-41.58-37.57-68.09-42.81-40.62-8.03-80.33,9.12-120.33,14.3-64.93,8.41-120.43-24.8-152.78-89.71-13.9-27.88-24.54-68.82-50.55-85.24-38.93-24.57-96.41-2.96-133.24,17.56-38.35,21.36-75.49,49.96-118.78,55.74-33.71,4.5-68.74-1.76-98.41-21.39-47.06-31.14-75.18-86.17-98.73-140.49-21.97-50.68-41.36-112.89-81.22-149.15-52.25-47.56-126.8-13.94-176.44,22.26-81.01,59.08-113.22,164.15-168.82,248.67-25.59,38.89-55.16,71.54-94.47,91.1-40.77,20.27-86.89,28.95-131.04,22.08-45.77-7.12-86.55-29.02-119.87-61.46-31.66,79-27.2,168.37,8.99,252.25,63.63,147.47,216.3,228.42,342.51,291.64,159.64,79.97,322.15,17.24,487.39,17.24,192,0,492.4,81.26,635.96-107.45,45.88-60.31,20.51-133.12,44.92-201.05,18.01-50.15,59.47-89.57,94.45-132.28-.49-.59-.95-1.23-1.45-1.81Z"/><path class="cls-21" d="M716.2,1271.96h248.22c-3.34-10.44-13.12-18.01-24.66-18.01-4.53,0-8.77,1.17-12.48,3.2,.11-1.05,.16-2.12,.16-3.2,0-17.71-14.36-32.07-32.07-32.07-8.1,0-15.47,3.03-21.12,7.98-2.61-15.1-15.73-26.59-31.57-26.59-6.71,0-12.93,2.06-18.08,5.59-.39-24.18-20.08-43.68-44.35-43.68s-44.38,19.87-44.38,44.39c0,12.64,5.31,24.03,13.79,32.11-.49-.02-.98-.08-1.48-.08-17.14,0-31.09,13.45-31.99,30.36Z"/><path class="cls-21" d="M1431.65,1314.26h-248.22c3.34-10.44,13.12-18.01,24.66-18.01,4.53,0,8.78,1.17,12.48,3.2-.11-1.05-.16-2.12-.16-3.2,0-17.71,14.36-32.07,32.07-32.07,8.1,0,15.47,3.03,21.12,7.98,2.61-15.1,15.73-26.59,31.57-26.59,6.71,0,12.93,2.06,18.08,5.59,.39-24.18,20.08-43.68,44.35-43.68s44.38,19.87,44.38,44.39c0,12.64-5.31,24.03-13.79,32.11,.49-.02,.98-.08,1.48-.08,17.14,0,31.09,13.45,31.99,30.36Z"/><path class="cls-21" d="M322.16,1312.46h248.22c-3.34-10.44-13.11-18.01-24.66-18.01-4.53,0-8.78,1.17-12.48,3.2,.11-1.05,.16-2.12,.16-3.2,0-17.71-14.36-32.07-32.07-32.07-8.1,0-15.47,3.03-21.12,7.98-2.61-15.1-15.73-26.59-31.57-26.59-6.71,0-12.93,2.06-18.08,5.59-.39-24.18-20.08-43.68-44.35-43.68s-44.38,19.87-44.38,44.39c0,12.64,5.31,24.03,13.79,32.11-.49-.02-.98-.08-1.48-.08-17.14,0-31.09,13.45-31.99,30.36Z"/><path class="cls-19" d="M1589.17,1373.45c-98.6-65.64-269.53-78.41-387.5-94.8-126.14-17.51-253.15-5.68-379.42-15.66-154.04-12.17-309.26,20.16-460.55,42.46-55.81,8.22-241.46,39.04-247.66,111.44-4.72,55.07,126.19,41.25,82.01,93.88-26.86,31.99-280.43,63.51-167,150.17,62.43,47.7,216.58,45.36,292.71,54.42,133.31,15.87,268.08,24.04,402.25,34.27,192.76,14.71,377.6,14.64,567.21-16.77,83.23-13.79,167.97-22.4,245.52-56.19,60.89-26.53,65.39-46.96,66.16-100.13,.39-26.91-5.3-19.22,9.61-45.45,12.18-21.43,28.29-26.14,34.08-52.83,10.44-48.14-18.3-78.77-57.4-104.8Z"/><path class="cls-11" d="M1554.08,1501.39c-54.46-8.47-94.58,28.06-137.43,55.88-43.67,28.34-90.03,43.88-142.57,41.36-52.04-2.5-102.15-15.13-151.09-32.51-102.77-36.49-202.33-78.46-312.69-45.43-49.95,14.95-95.81,39.96-145.17,56.48-43.03,14.4-95.17,25.82-137.52,2.73-23.4-12.76-61.91-33.73-65.71-63.92-2.66-21.14,15.69-36.45,31.49-46.98,23.6-15.72,50.81-27.21,72.24-46.03,22.29-19.57,32.95-55.56,6.41-78.36-19.13-16.43-45.64-8.8-67.09-18.9-15.64-7.37-19.1-22.47-17.84-38.07-41.08,6.38-81.99,13.08-122.61,19.06-55.47,8.17-239.99,38.8-246.15,110.75-4.69,54.73,125.42,41,81.51,93.3-26.7,31.8-278.71,63.12-165.98,149.25,62.05,47.41,215.25,45.08,290.91,54.09,132.49,15.77,266.44,23.89,399.79,34.06,191.58,14.62,375.29,14.55,563.74-16.66,82.72-13.7,166.94-22.26,244.01-55.85,60.52-26.36,64.99-46.68,65.75-99.52,.39-26.75-5.27-19.1,9.55-45.17,12.11-21.3,28.12-25.98,33.87-52.51,1.83-8.42,2.39-16.29,1.96-23.7-19.55,31.3-50.85,52.65-89.41,46.66Z"/><g><path class="cls-5" d="M159.3,800.64c-9.44,4.85-32.49-8.24-42.78-9.66-17.22-2.37-33.74-.27-47.88,10.43-30.55,23.14,29.96,93.01,53.63,80.05-30.63-2.22-121.04,20.73-87.17,74.39,20.6,32.63,65.6,46.23,101.92,36.21,9.68-2.68,32.28-8.8,38.6-16.83-12.23,15.55-13.36,18.97-19.88,38.06-8.46,24.75,1.48,67.62,25.71,80.23,37.33,19.43,105.87-43.69,98.82-84.05-16.86,37.66-1.03,80.5,52.5,83.86,77.99,4.89,90.65-58.9,74.21-111.46,27.65,45.47,104.4,41.27,121.27-1.75,21.28-54.28-37.08-85.89-69.44-95.77,27.54-11.74,69.39-32.98,47.64-75.75-24.63-48.43-84.21-43.76-119.7-14.41,31.44-17.75,62.51-122.7,10.03-123.09-35.91-.25-85.38,51.93-79.93,88.82,6.43-27.27,39.82-162.56-24.95-154.82-41.89,5.01-64.41,86.23-54.17,118.93-5.18-27.79-28.02-89.44-66.44-73.62-27.5,11.32-33.04,56.04-28.79,81.15,0,0,.15,35.81,16.83,69.06Z"/><path class="cls-21" d="M153.09,913.54c-22.34-5.1-35.12-26.1-32.39-51.65,3.37-31.45,37.04-43.99,59.25-62.41-19.77-13.25-27.64-40.65-16.59-63.17,18.72-38.15,58.27-27.57,87.97-9.68,2.7-25.9,3.35-64.88,27.98-75.49,22.32-9.62,39.29-.68,51.79,14.54,.41-34.69-7.96-64.29-39.22-60.55-38.98,4.67-61.17,75.3-55.82,111.44-7.41-29.92-29.53-80.65-64.79-66.13-27.5,11.32-33.04,56.04-28.79,81.15,0,0,.15,35.81,16.83,69.06-9.44,4.85-32.49-8.24-42.78-9.66-17.22-2.37-33.74-.27-47.88,10.43-25.64,19.43,12.86,71.73,39.89,80.4-37.33,3.58-103.12,27.02-73.43,74.05,20.6,32.63,65.6,46.23,101.92,36.21,7.59-2.09,23.07-6.32,32.47-11.9-21.25-16.06-32.76-44.12-16.4-66.62Z"/><path class="cls-21" d="M495.16,901.06c-1.83,10.11-5.13,19.61-12.96,26.76-22.21,20.3-53.54,11.31-80.66,11.52-1.84,34.03-27.74,78.02-58.5,50.57-13.66,26.8-34.5,46.38-68.01,40.26-23.76-4.33-49.81-17.61-50.85-40.74-18.17,7.47-37.99,2.72-53.22-8.16-8,10.79-9.66,15.69-15.24,32.01-8.46,24.75,1.48,67.62,25.71,80.23,28.5,14.84,75.16-18.45,92.52-52.99,.98,27.02,19.88,50.36,58.81,52.8,77.99,4.89,90.65-58.9,74.21-111.46,27.65,45.47,104.4,41.27,121.27-1.75,14.33-36.54-7.45-62.79-33.08-79.07Z"/><g><path class="cls-17" d="M360.67,797.34c-5.04,3.77-9.49,8.2-14.72,11.67-5.52,3.66-9.34,9.99-13.08,15.45-9.26,13.5-15.7,29.44-21.45,44.69-14.31,37.96-21.8,78.26-27.44,118.3-12.95,91.88-13.29,185.76-10.4,278.34,1.15,36.83,2.28,73.9,5.65,110.61,.21,2.91,.75,5.76,1.61,8.54,1.58,3.96,2.83-3.45,2.82-3.35,2.28-12.15,2.18-25.22,1.68-37.51-.71-17.65-2.04-35.29-2.97-52.93-.22-4.09-.42-8.18-.62-12.27-.14-2.8-.54-11.53,.02,.52-.12-2.51-.23-5.03-.34-7.54-.41-9.34-.76-18.69-1.06-28.04-.32-9.85-.57-19.7-.76-29.55-.05-2.43-.09-4.86-.13-7.28-.09-5.43,.13,9.09,.05,3.65-.02-1.23-.03-2.47-.05-3.7-.07-5.4-.1-10.8-.13-16.2-.04-10.6,0-21.21,.14-31.81,.07-5.52-.14,8.75-.05,3.21,.02-1.3,.04-2.59,.07-3.89,.05-2.6,.1-5.2,.16-7.8,.13-5.66,.29-11.32,.48-16.98,.17-5.25,.38-10.5,.61-15.75,.09-2.08,.35-7.36-.1,2.12,.06-1.32,.13-2.64,.19-3.96,.15-3.08,.32-6.16,.5-9.24,.62-10.99,1.39-21.97,2.3-32.94,.41-4.91-.5,5.8-.07,.88,.11-1.31,.23-2.63,.35-3.94,.24-2.64,.49-5.28,.74-7.91,.55-5.72,1.14-11.44,1.78-17.16,.58-5.23,1.22-10.46,1.88-15.69,.33-2.59,.68-5.19,1.03-7.78,.18-1.29,.36-2.58,.54-3.87-.67,4.77,.16-1.06,.3-1.95,6.05-40.79,14.52-80.24,28.74-118.74,5.32-14.41,11.71-28.44,18.53-42.2,7.17-14.44,13.94-28.82,23.43-41.94,1.19-1.65,.66-6.03,.66-7.89,0-.49-.74-8.3-.9-8.19h0Z"/><path class="cls-17" d="M197.7,860.1c5.67,8.98,14.49,15.69,21.56,23.54,6.22,6.91,12.58,13.38,18.04,20.96,9.88,13.7,17.8,28.61,23.68,44.43,5.83,15.66,9.5,31.98,12.38,48.4,.76,4.31,1.43,8.63,2.08,12.96,.29,1.92,.56,3.84,.84,5.76-.47-3.25,.47,3.52,.59,4.45,1.15,8.64,2.18,17.3,3.21,25.96,.02,.15,.49,7.82,2.08,7.82s2.06-7.67,2.08-7.82c1.36-12.36,1.49-25.41,0-37.76-4.28-35.41-8.41-71.42-20.85-105.09-5.61-15.17-13.21-29.94-23.72-42.3-5.42-6.37-11.59-12.06-18.2-17.18-3.12-2.41-6.85-4.1-10.39-5.78-3.95-1.88-8.64-4.21-13.02-2.48-1.63,.65-1.27,7.81-1.3,9.01-.1,3.15-.07,6.31,.14,9.46,.09,1.41-.02,4.33,.81,5.64h0Z"/><path class="cls-17" d="M256.72,816.15c7.86,18.94,16.61,37.43,25.32,55.99,4.02,8.57,7.91,17.21,11.66,25.91,3.02,6.99,5.37,14.57,8.88,21.31,1.06,2.03,1.58-1.6,1.65-1.96,.71-3.8,.87-7.76,.98-11.61,.23-7.57,.88-16.57-1.49-23.9,1.57,13.22,2.09,16.73,1.54,10.52-.12-2.19-.36-4.37-.72-6.53-.39-2.54-1.04-4.8-2.04-7.14-1.54-3.6-3.17-7.15-4.88-10.68-3.97-8.21-8.2-16.29-12.52-24.32-7.92-14.72-16-30.43-28.17-42.13-.08-.08-.78,5.15-.79,5.44-.08,2.71-.51,6.52,.57,9.11h0Z"/></g></g><path class="cls-4" d="M1449.57,797.09c0-23.33-18.92-42.25-42.25-42.25-7.38,0-14.32,1.91-20.36,5.23,.17-1.72,.26-3.46,.26-5.23,0-28.9-23.43-52.33-52.33-52.33-13.21,0-25.25,4.94-34.46,13.01-4.25-24.63-25.66-43.38-51.51-43.38-10.94,0-21.09,3.37-29.5,9.12-.63-39.46-32.76-71.26-72.36-71.26s-72.42,32.42-72.42,72.42c0,20.63,8.67,39.2,22.51,52.39-.81-.04-1.6-.12-2.42-.12-28.9,0-52.33,23.43-52.33,52.33s23.43,52.33,52.33,52.33h325.92l-2.07-1.56c17.86-4.94,31-21.26,31-40.69Z"/><path class="cls-4" d="M869.48,536.32c0-23.34-18.92-42.25-42.25-42.25-7.38,0-14.32,1.91-20.36,5.23,.17-1.72,.26-3.46,.26-5.23,0-28.9-23.43-52.33-52.33-52.33-13.21,0-25.25,4.94-34.46,13.01-4.25-24.63-25.66-43.38-51.51-43.38-10.94,0-21.09,3.37-29.49,9.12-.63-39.46-32.76-71.26-72.36-71.26s-72.42,32.42-72.42,72.42c0,20.63,8.67,39.2,22.51,52.39-.81-.04-1.6-.12-2.42-.12-28.9,0-52.33,23.43-52.33,52.33s23.43,52.33,52.33,52.33h325.92l-2.07-1.56c17.86-4.94,31-21.26,31-40.69Z"/><g><path class="cls-5" d="M1393.8,800.64c-9.44,4.85-32.49-8.24-42.78-9.66-17.22-2.37-33.74-.27-47.88,10.43-30.55,23.14,29.96,93.01,53.62,80.05-30.63-2.22-121.04,20.73-87.17,74.39,20.6,32.63,65.6,46.23,101.92,36.21,9.68-2.68,32.28-8.8,38.6-16.83-12.23,15.55-13.36,18.97-19.88,38.06-8.46,24.75,1.48,67.62,25.71,80.23,37.33,19.43,105.87-43.69,98.82-84.05-16.86,37.66-1.03,80.5,52.5,83.86,77.99,4.89,90.65-58.9,74.21-111.46,27.65,45.47,104.4,41.27,121.27-1.75,21.28-54.28-37.08-85.89-69.44-95.77,27.54-11.74,69.39-32.98,47.64-75.75-24.63-48.43-84.21-43.76-119.7-14.41,31.43-17.75,62.51-122.7,10.03-123.09-35.91-.25-85.38,51.93-79.93,88.82,6.43-27.27,39.82-162.56-24.95-154.82-41.89,5.01-64.41,86.23-54.17,118.93-5.18-27.79-28.02-89.44-66.44-73.62-27.5,11.32-33.04,56.04-28.79,81.15,0,0,.15,35.81,16.83,69.06Z"/><path class="cls-21" d="M1387.58,913.54c-22.34-5.1-35.12-26.1-32.39-51.65,3.37-31.45,37.04-43.99,59.25-62.41-19.77-13.25-27.64-40.65-16.59-63.17,18.72-38.15,58.27-27.57,87.97-9.68,2.7-25.9,3.35-64.88,27.98-75.49,22.32-9.62,39.29-.68,51.79,14.54,.41-34.69-7.96-64.29-39.22-60.55-38.98,4.67-61.17,75.3-55.82,111.44-7.41-29.92-29.53-80.65-64.79-66.13-27.5,11.32-33.04,56.04-28.79,81.15,0,0,.15,35.81,16.83,69.06-9.44,4.85-32.49-8.24-42.78-9.66-17.22-2.37-33.74-.27-47.88,10.43-25.64,19.43,12.86,71.73,39.89,80.4-37.33,3.58-103.12,27.02-73.43,74.05,20.6,32.63,65.6,46.23,101.92,36.21,7.59-2.09,23.07-6.32,32.47-11.9-21.25-16.06-32.76-44.12-16.4-66.62Z"/><path class="cls-21" d="M1729.66,901.06c-1.83,10.11-5.13,19.61-12.96,26.76-22.21,20.3-53.54,11.31-80.66,11.52-1.84,34.03-27.74,78.02-58.5,50.57-13.66,26.8-34.5,46.38-68.01,40.26-23.76-4.33-49.81-17.61-50.85-40.74-18.17,7.47-37.99,2.72-53.22-8.16-8,10.79-9.66,15.69-15.24,32.01-8.46,24.75,1.48,67.62,25.71,80.23,28.5,14.84,75.16-18.45,92.52-52.99,.98,27.02,19.88,50.36,58.81,52.8,77.99,4.89,90.65-58.9,74.21-111.46,27.65,45.47,104.4,41.27,121.27-1.75,14.33-36.54-7.45-62.79-33.08-79.07Z"/><g><path class="cls-17" d="M1595.17,797.34c-5.04,3.77-9.49,8.2-14.72,11.67-5.52,3.66-9.34,9.99-13.08,15.45-9.26,13.5-15.7,29.44-21.45,44.69-14.31,37.96-21.8,78.26-27.44,118.3-12.95,91.88-13.29,185.76-10.4,278.34,1.15,36.83,2.28,73.9,5.65,110.61,.21,2.91,.75,5.76,1.61,8.54,1.58,3.96,2.83-3.45,2.82-3.35,2.28-12.15,2.18-25.22,1.68-37.51-.71-17.65-2.04-35.29-2.97-52.93-.22-4.09-.42-8.18-.62-12.27-.14-2.8-.54-11.53,.02,.52-.12-2.51-.23-5.03-.34-7.54-.41-9.34-.76-18.69-1.06-28.04-.32-9.85-.57-19.7-.76-29.55-.05-2.43-.09-4.86-.13-7.28-.09-5.43,.13,9.09,.05,3.65-.02-1.23-.03-2.47-.05-3.7-.07-5.4-.1-10.8-.13-16.2-.04-10.6,0-21.21,.15-31.81,.07-5.52-.14,8.75-.05,3.21,.02-1.3,.04-2.59,.07-3.89,.05-2.6,.1-5.2,.16-7.8,.13-5.66,.29-11.32,.48-16.98,.17-5.25,.38-10.5,.61-15.75,.09-2.08,.35-7.36-.1,2.12,.06-1.32,.13-2.64,.19-3.96,.15-3.08,.32-6.16,.5-9.24,.62-10.99,1.39-21.97,2.3-32.94,.41-4.91-.5,5.8-.07,.88,.11-1.31,.23-2.63,.35-3.94,.24-2.64,.49-5.28,.74-7.91,.55-5.72,1.14-11.44,1.78-17.16,.58-5.23,1.22-10.46,1.88-15.69,.33-2.59,.68-5.19,1.03-7.78,.18-1.29,.36-2.58,.54-3.87-.67,4.77,.16-1.06,.3-1.95,6.05-40.79,14.52-80.24,28.74-118.74,5.32-14.41,11.71-28.44,18.53-42.2,7.17-14.44,13.94-28.82,23.43-41.94,1.19-1.65,.66-6.03,.66-7.89,0-.49-.74-8.3-.9-8.19h0Z"/><path class="cls-17" d="M1432.19,860.1c5.67,8.98,14.49,15.69,21.56,23.54,6.22,6.91,12.58,13.38,18.04,20.96,9.88,13.7,17.8,28.61,23.68,44.43,5.83,15.66,9.5,31.98,12.38,48.4,.76,4.31,1.43,8.63,2.08,12.96,.29,1.92,.56,3.84,.84,5.76-.47-3.25,.47,3.52,.59,4.45,1.15,8.64,2.18,17.3,3.21,25.96,.02,.15,.49,7.82,2.08,7.82s2.06-7.67,2.08-7.82c1.36-12.36,1.49-25.41,0-37.76-4.28-35.41-8.41-71.42-20.85-105.09-5.61-15.17-13.21-29.94-23.72-42.3-5.42-6.37-11.59-12.06-18.2-17.18-3.12-2.41-6.85-4.1-10.39-5.78-3.95-1.88-8.64-4.21-13.02-2.48-1.63,.65-1.27,7.81-1.3,9.01-.1,3.15-.07,6.31,.14,9.46,.09,1.41-.02,4.33,.81,5.64h0Z"/><path class="cls-17" d="M1491.21,816.15c7.86,18.94,16.61,37.43,25.32,55.99,4.02,8.57,7.91,17.21,11.66,25.91,3.02,6.99,5.37,14.57,8.88,21.31,1.06,2.03,1.58-1.6,1.65-1.96,.71-3.8,.87-7.76,.98-11.61,.23-7.57,.88-16.57-1.49-23.9,1.57,13.22,2.09,16.73,1.54,10.52-.12-2.19-.36-4.37-.72-6.53-.39-2.54-1.04-4.8-2.04-7.14-1.54-3.6-3.17-7.15-4.88-10.68-3.97-8.21-8.2-16.29-12.52-24.32-7.92-14.72-16-30.43-28.17-42.13-.08-.08-.78,5.15-.79,5.44-.08,2.71-.51,6.52,.57,9.11h0Z"/></g></g><g><path class="cls-5" d="M766.26,800.64c-9.44,4.85-32.49-8.24-42.78-9.66-17.22-2.37-33.74-.27-47.88,10.43-30.55,23.14,29.96,93.01,53.63,80.05-30.63-2.22-121.04,20.73-87.17,74.39,20.6,32.63,65.6,46.23,101.92,36.21,9.68-2.68,32.28-8.8,38.6-16.83-12.23,15.55-13.36,18.97-19.88,38.06-8.46,24.75,1.48,67.62,25.71,80.23,37.33,19.43,105.87-43.69,98.82-84.05-16.86,37.66-1.03,80.5,52.5,83.86,77.99,4.89,90.65-58.9,74.21-111.46,27.65,45.47,104.4,41.27,121.27-1.75,21.28-54.28-37.08-85.89-69.44-95.77,27.54-11.74,69.39-32.98,47.64-75.75-24.63-48.43-84.21-43.76-119.7-14.41,31.44-17.75,62.51-122.7,10.03-123.09-35.91-.25-85.38,51.93-79.93,88.82,6.43-27.27,39.81-162.56-24.95-154.82-41.89,5.01-64.41,86.23-54.17,118.93-5.18-27.79-28.02-89.44-66.44-73.62-27.5,11.32-33.04,56.04-28.79,81.15,0,0,.15,35.81,16.83,69.06Z"/><path class="cls-21" d="M760.04,913.54c-22.34-5.1-35.12-26.1-32.39-51.65,3.37-31.45,37.04-43.99,59.25-62.41-19.77-13.25-27.64-40.65-16.59-63.17,18.72-38.15,58.27-27.57,87.97-9.68,2.7-25.9,3.35-64.88,27.99-75.49,22.32-9.62,39.29-.68,51.79,14.54,.41-34.69-7.96-64.29-39.22-60.55-38.98,4.67-61.17,75.3-55.82,111.44-7.41-29.92-29.53-80.65-64.79-66.13-27.5,11.32-33.04,56.04-28.79,81.15,0,0,.15,35.81,16.83,69.06-9.44,4.85-32.49-8.24-42.78-9.66-17.22-2.37-33.74-.27-47.88,10.43-25.64,19.43,12.86,71.73,39.88,80.4-37.33,3.58-103.12,27.02-73.43,74.05,20.6,32.63,65.6,46.23,101.92,36.21,7.59-2.09,23.07-6.32,32.47-11.9-21.25-16.06-32.76-44.12-16.4-66.62Z"/><path class="cls-21" d="M1102.12,901.06c-1.83,10.11-5.13,19.61-12.96,26.76-22.22,20.3-53.54,11.31-80.66,11.52-1.84,34.03-27.74,78.02-58.5,50.57-13.66,26.8-34.5,46.38-68.01,40.26-23.76-4.33-49.81-17.61-50.85-40.74-18.17,7.47-37.99,2.72-53.22-8.16-8,10.79-9.66,15.69-15.24,32.01-8.46,24.75,1.48,67.62,25.71,80.23,28.5,14.84,75.16-18.45,92.52-52.99,.98,27.02,19.88,50.36,58.81,52.8,77.99,4.89,90.65-58.9,74.21-111.46,27.65,45.47,104.4,41.27,121.27-1.75,14.33-36.54-7.45-62.79-33.08-79.07Z"/><g><path class="cls-17" d="M967.63,797.34c-5.04,3.77-9.49,8.2-14.72,11.67-5.52,3.66-9.34,9.99-13.08,15.45-9.26,13.5-15.7,29.44-21.45,44.69-14.31,37.96-21.8,78.26-27.44,118.3-12.95,91.88-13.29,185.76-10.4,278.34,1.15,36.83,2.28,73.9,5.65,110.61,.21,2.91,.75,5.76,1.61,8.54,1.58,3.96,2.83-3.45,2.82-3.35,2.28-12.15,2.18-25.22,1.68-37.51-.71-17.65-2.04-35.29-2.97-52.93-.22-4.09-.42-8.18-.62-12.27-.14-2.8-.54-11.53,.02,.52-.12-2.51-.23-5.03-.34-7.54-.41-9.34-.76-18.69-1.06-28.04-.32-9.85-.57-19.7-.76-29.55-.05-2.43-.09-4.86-.13-7.28-.09-5.43,.13,9.09,.05,3.65-.02-1.23-.03-2.47-.05-3.7-.07-5.4-.1-10.8-.13-16.2-.04-10.6,0-21.21,.15-31.81,.07-5.52-.14,8.75-.05,3.21,.02-1.3,.04-2.59,.07-3.89,.05-2.6,.1-5.2,.16-7.8,.13-5.66,.29-11.32,.48-16.98,.17-5.25,.38-10.5,.61-15.75,.09-2.08,.35-7.36-.1,2.12,.06-1.32,.13-2.64,.19-3.96,.15-3.08,.32-6.16,.5-9.24,.62-10.99,1.39-21.97,2.3-32.94,.41-4.91-.5,5.8-.07,.88,.11-1.31,.23-2.63,.35-3.94,.24-2.64,.49-5.28,.74-7.91,.55-5.72,1.14-11.44,1.78-17.16,.58-5.23,1.22-10.46,1.88-15.69,.33-2.59,.68-5.19,1.03-7.78,.18-1.29,.36-2.58,.54-3.87-.67,4.77,.16-1.06,.3-1.95,6.05-40.79,14.52-80.24,28.74-118.74,5.32-14.41,11.71-28.44,18.53-42.2,7.17-14.44,13.94-28.82,23.43-41.94,1.19-1.65,.66-6.03,.66-7.89,0-.49-.74-8.3-.9-8.19h0Z"/><path class="cls-17" d="M804.66,860.1c5.67,8.98,14.49,15.69,21.56,23.54,6.22,6.91,12.58,13.38,18.04,20.96,9.88,13.7,17.8,28.61,23.68,44.43,5.83,15.66,9.5,31.98,12.38,48.4,.76,4.31,1.43,8.63,2.08,12.96,.29,1.92,.56,3.84,.84,5.76-.47-3.25,.47,3.52,.59,4.45,1.15,8.64,2.18,17.3,3.21,25.96,.02,.15,.49,7.82,2.08,7.82s2.06-7.67,2.08-7.82c1.36-12.36,1.49-25.41,0-37.76-4.28-35.41-8.41-71.42-20.86-105.09-5.61-15.17-13.21-29.94-23.72-42.3-5.42-6.37-11.59-12.06-18.2-17.18-3.12-2.41-6.85-4.1-10.39-5.78-3.95-1.88-8.64-4.21-13.02-2.48-1.63,.65-1.27,7.81-1.3,9.01-.1,3.15-.07,6.31,.14,9.46,.09,1.41-.02,4.33,.81,5.64h0Z"/><path class="cls-17" d="M863.68,816.15c7.86,18.94,16.61,37.43,25.32,55.99,4.02,8.57,7.91,17.21,11.66,25.91,3.02,6.99,5.37,14.57,8.88,21.31,1.06,2.03,1.58-1.6,1.65-1.96,.71-3.8,.87-7.76,.98-11.61,.23-7.57,.88-16.57-1.49-23.9,1.57,13.22,2.09,16.73,1.54,10.52-.12-2.19-.36-4.37-.72-6.53-.39-2.54-1.04-4.8-2.04-7.14-1.54-3.6-3.17-7.15-4.88-10.68-3.97-8.21-8.2-16.29-12.52-24.32-7.92-14.72-16-30.43-28.17-42.13-.08-.08-.78,5.15-.79,5.44-.08,2.71-.51,6.52,.57,9.11h0Z"/></g></g></g><g><polygon class="cls-18" points="798.18 205.62 815.9 176.96 804.66 154.5 780.79 155.92 777.11 198.61 798.18 205.62"/><rect class="cls-10" x="780.94" y="125.76" width="107.88" height="57.5" transform="translate(153.75 661.41) rotate(-47.14)"/><path class="cls-1" d="M870.88,81.08c-2.5,9.39-4.07,18.95-8.46,27.73-2.58,5.16-6.12,9.63-9.18,14.51-1.62,2.57-2.68,6.41-5.81,7.54-6.59,2.37-8.67-4.1-11.09-8.41-3.76-6.7-5.69-14.87-8.12-22.19-5-15.04-7.71-31.32,.62-45.53,6.57-11.21,21.72-15.22,34.07-13.88,5.87,.64,17.21,6.32,17.45,13.28,.14,4.07-2.98,8.34-4.48,11.98-2,4.87-3.64,9.88-5,14.97Z"/><path class="cls-7" d="M779.29,248.27c-23.57,11.46-33.39,39.85-21.93,63.42,11.46,23.57,39.86,33.39,63.42,21.93,23.57-11.46,33.39-39.85,21.93-63.42-11.45-23.57-39.85-33.39-63.42-21.93Z"/><polygon class="cls-7" points="838.86 318.24 762.16 455.63 683.68 459.76 755.05 275.87 838.86 318.24"/><path class="cls-18" d="M953.47,70.83l-2.18,81.74s2.18,26.21-23.32,32.86l-55.11,14.84s-19.08,2.12-22.26-25.44c-4.33-20.47-7.44-41.26-9.5-62.08-1.82-18.33-7.91-40.87-.2-58.58,9.86-22.65,40.15-29.43,60.58-25.61,0,0,42.51-1,51.99,42.27Z"/><path class="cls-18" d="M1037.77,270.78l-225.05-26.14s-34.02,7.68-27.58,87.16l40.56,268h164.3l63.04-236.15s20.74-74.93-15.27-92.86Z"/><g><path class="cls-20" d="M823.43,653.47c-23.07,26.89-20.91,66.58,4.83,88.66,25.73,22.08,65.29,18.18,88.36-8.71,23.07-26.89,20.9-66.58-4.83-88.66-25.73-22.07-65.29-18.18-88.36,8.71Z"/><path class="cls-14" d="M772.71,1091.77l36.91-414.45,123.86-2.23-76.84,394.39s-73.04,78.91-83.94,22.29Z"/></g><path class="cls-18" d="M928.46,163.83l16.1,108s-50.39,10.59-76.02,0l12.66-105.19,47.26-2.81Z"/><g><path class="cls-20" d="M990,599.8s20.72,67.94,26.92,98.78c0,0-48.27,97.08-214.35,57.97,0,0,2.73-106.09,23.14-156.75h164.3Z"/><g><path class="cls-20" d="M908.02,745.35c22.57,27.3,62.06,31.92,88.19,10.31,26.13-21.61,29.01-61.25,6.44-88.55-22.58-27.3-62.06-31.92-88.19-10.31-26.13,21.61-29.01,61.25-6.44,88.55Z"/><path class="cls-20" d="M927.08,1097.6l-32.46-379.26,122.3-19.75-6.7,368.8s-56.77,79.86-83.14,30.22Z"/></g></g><polygon class="cls-20" points="1010.22 1067.38 996.91 1553.06 979.33 1553.06 927.08 1097.6 1010.22 1067.38"/><polygon class="cls-14" points="856.88 1061.15 834.73 1553.06 815.08 1553.06 772.71 1091.77 856.88 1061.15"/><polygon class="cls-16" points="996.91 1553.06 979.33 1553.06 917.55 1578.03 1005.66 1578.03 996.91 1553.06"/><polygon class="cls-16" points="834.16 1553.06 814.51 1553.06 754.22 1578.03 842.34 1578.03 834.16 1553.06"/><path class="cls-2" d="M732.23,503.75s-90.77,0-53.82-81.53l98.7-223.61,21.06,7.01-36.02,250.02-29.93,48.11Z"/><path class="cls-13" d="M871,251.42l-58.29-6.78s-41.1,8.31-33.01,89.18l36.2,254.26-2.71,54.6h189.38l5.48-68.83,44.99-210.21s20.74-74.93-15.27-92.86l-102.08-12.34-55.97,35.57-11.18,5.48-8.25-12.83,10.71-35.24Z"/><path class="cls-1" d="M922.57,5.87c16.64,2.38,30.18,7.62,41.62,21.68,8.94,10.99,13.05,33.99,11.65,48.26-1.43,14.61-5.93,34.07-10,48.41-4.26,15.02-10.71,25.31-15.82,39.6,0,0,6.39-28.43-15.26-31.95-7.27-1.18-8.23-1.6-8.32-9.99-.21-18.39-.48-36.68-7.63-45.23-8.54-10.2-32.45-5.84-44.54-5.84s-30.15,2.27-42.27-1.02c-9.9-2.69-22.99-18.33-21.71-28.83,0,0,12.24-59.51,112.26-35.11Z"/><path class="cls-18" d="M930.65,124.23c0,8.94,6.23,16.19,13.91,16.19s13.91-7.25,13.91-16.19-6.23-16.19-13.91-16.19-13.91,7.25-13.91,16.19Z"/><g><polygon class="cls-6" points="1002.57 642.68 813.23 642.68 809.76 661.63 1005.85 661.63 1002.57 642.68"/><rect class="cls-22" x="861.84" y="638.65" width="32.78" height="27.01"/><line class="cls-22" x1="894.62" y1="652.16" x2="883.41" y2="652.16"/></g><path class="cls-2" d="M772.71,742.82l17.91-154.73-10.92-254.26c-8.09-80.87,33.01-89.18,33.01-89.18l58.29,6.78-17.9,170.8-14.24,367.67s-44.09,1.82-66.15-47.07Z"/><g><polygon class="cls-9" points="839.37 254.11 823.79 303.97 857.62 282.5 839.37 254.11"/><polygon class="cls-3" points="873.29 233.34 873.29 262.99 868.54 299.48 839.37 254.11 873.29 233.34"/></g><path class="cls-2" d="M1056.01,756.55l-18.36-155.62,15.39-237.28s20.74-74.93-15.27-92.86l-102.08-12.34-37.6,177.44,13.87,354.01s110.02,0,144.04-33.33Z"/><g><path class="cls-15" d="M995.23,294.61c-13.31,22.58-5.8,51.67,16.78,64.98,22.57,13.31,51.67,5.8,64.98-16.77,13.31-22.58,5.8-51.67-16.78-64.98-22.57-13.31-51.67-5.8-64.98,16.77Z"/><polygon class="cls-15" points="1083.55 320 1113.71 565.57 1043.72 585.34 990.29 331.01 1083.55 320"/><path class="cls-15" d="M1074.95,532.54s39.47-4.74,41.87,54.89l-67.18,289.41-22.98-5.77,17.06-285.73,31.23-52.8Z"/><polygon class="cls-18" points="1049.64 876.84 1026.67 871.07 1016.13 903.98 1028.92 927.61 1049.06 924.45 1062.2 898.88 1049.64 876.84"/></g><g><polygon class="cls-9" points="868.54 299.48 884.91 269.09 898.1 285 868.54 299.48"/><polygon class="cls-3" points="938.5 231.18 968.5 262.12 916.75 309.16 884.91 269.09 938.5 231.18"/></g></g></g></g></g></svg>